<?xml version="1.0" standalone="no"?>
<!DOCTYPE svg PUBLIC "-//W3C//DTD SVG 20010904//EN"
 "http://www.w3.org/TR/2001/REC-SVG-20010904/DTD/svg10.dtd">
<svg version="1.0" xmlns="http://www.w3.org/2000/svg"
 width="260.000000pt" height="260.000000pt" viewBox="0 0 260.000000 260.000000"
 preserveAspectRatio="xMidYMid meet">
<metadata>
Created by potrace 1.11, written by Peter Selinger 2001-2013
</metadata>
<g transform="translate(0.000000,260.000000) scale(0.100000,-0.100000)"
fill="#000000" stroke="none">
<path d="M1133 2510 c-176 -25 -367 -98 -519 -200 -101 -68 -256 -223 -324
-324 -76 -114 -137 -249 -172 -384 -29 -109 -31 -129 -31 -292 -1 -235 31
-371 131 -565 166 -320 466 -548 834 -632 102 -23 384 -23 486 0 255 58 463
175 637 358 158 165 258 355 312 591 23 102 23 384 0 486 -89 388 -330 692
-684 859 -143 68 -297 103 -468 108 -77 2 -168 0 -202 -5z m757 -655 l0 -105
-230 0 -230 0 0 -635 0 -635 -125 0 -125 0 0 635 0 635 -230 0 -230 0 0 105 0
105 585 0 585 0 0 -105z"/>
</g>
</svg>
